<?xml version="1.0" encoding="UTF-8" standalone="no"?>
<!-- Created with Inkscape (http://www.inkscape.org/) -->

<svg
   width="22.234331mm"
   height="22.234331mm"
   viewBox="0 0 22.234331 22.234331"
   version="1.1"
   id="svg961"
   inkscape:version="1.2.2 (b0a8486541, 2022-12-01)"
   sodipodi:docname="favicon.svg"
   inkscape:export-filename="favicon.png"
   inkscape:export-xdpi="800"
   inkscape:export-ydpi="800"
   xmlns:inkscape="http://www.inkscape.org/namespaces/inkscape"
   xmlns:sodipodi="http://sodipodi.sourceforge.net/DTD/sodipodi-0.dtd"
   xmlns="http://www.w3.org/2000/svg"
   xmlns:svg="http://www.w3.org/2000/svg">
  <sodipodi:namedview
     id="namedview963"
     pagecolor="#ffffff"
     bordercolor="#cccccc"
     borderopacity="1"
     inkscape:showpageshadow="true"
     inkscape:pageopacity="0"
     inkscape:pagecheckerboard="true"
     inkscape:deskcolor="#d1d1d1"
     inkscape:document-units="mm"
     showgrid="false"
     inkscape:zoom="3.4104607"
     inkscape:cx="-6.0109181"
     inkscape:cy="36.65194"
     inkscape:window-width="1366"
     inkscape:window-height="706"
     inkscape:window-x="0"
     inkscape:window-y="0"
     inkscape:window-maximized="1"
     inkscape:current-layer="layer1"
     showborder="true" />
  <defs
     id="defs958" />
  <g
     inkscape:label="Capa 1"
     inkscape:groupmode="layer"
     id="layer1"
     transform="translate(-73.700431,-103.23193)">
    <path
       id="circle1148"
       style="font-variation-settings:'wdth' 75, 'wght' 100;fill:#ffffff;stroke-width:0.15;stroke-linecap:round;stroke-linejoin:round;paint-order:fill markers stroke;stop-color:#000000;stroke-dasharray:none"
       d="M 95.934762,114.34909 A 11.117166,11.117166 0 0 1 84.817597,125.46626 11.117166,11.117166 0 0 1 73.700431,114.34909 11.117166,11.117166 0 0 1 84.817597,103.23193 11.117166,11.117166 0 0 1 95.934762,114.34909 Z"
       inkscape:export-filename="../img/favicon.png"
       inkscape:export-xdpi="800"
       inkscape:export-ydpi="800" />
    <path
       d="m 86.766719,111.00312 h 7.12415 c 0.7892,0 0.988132,0.72445 0.87147,1.04372 l -1.252699,3.42779 c -0.204508,0.55998 -0.616618,0.65015 -0.906293,0.65015 l -5.87938,-5e-5 -0.57557,1.57034 -1.834981,7e-5 1.151257,-3.14076 5.777774,-7e-5 c 0.3101,0 0.758726,-0.0125 0.991101,-0.60574 l 0.252174,-0.68594 c 0.11395,-0.30914 -0.160423,-0.68906 -0.511443,-0.68906 h -5.783211 z"
       style="fill:#0d0d0d;fill-opacity:1;fill-rule:evenodd;stroke:#0d0d0d;stroke-width:0.3;stroke-linecap:round;stroke-linejoin:round;stroke-dasharray:none;stroke-opacity:1"
       id="path5315" />
    <path
       d="m 86.767194,111.00305 h 7.124231 c 0.789201,0 0.988133,0.72446 0.87147,1.04375 l -1.252711,3.4277 c -0.204623,0.55998 -0.616629,0.65016 -0.906281,0.65016 h -5.879449 l -0.57557,1.57041 h -1.835109 l 1.151454,-3.14083 5.777775,-6e-5 c 0.310019,0 0.758783,-0.0124 0.991077,-0.60574 l 0.252197,-0.68588 c 0.113835,-0.30913 -0.160376,-0.68915 -0.511443,-0.68915 l -5.783211,6e-5 z"
       style="fill:#d90008;fill-opacity:1;fill-rule:evenodd;stroke-width:0.872883;stroke-dasharray:none"
       id="path5333" />
    <path
       d="m 82.867998,117.69514 h -7.12394 c -0.789491,0 -0.988551,-0.72426 -0.871633,-1.04375 l 1.828223,-4.99812 c 0.198248,-0.54172 0.616618,-0.65015 0.906525,-0.65015 h 7.714233 l -0.575559,1.57045 H 78.96813 c -0.35597,0 -0.773609,-8.1e-4 -1.008813,0.65164 l -0.810217,2.21035 c -0.113371,0.30932 0.160365,0.68917 0.511547,0.68917 h 5.783154 z"
       style="fill:#0d0d0d;fill-opacity:1;fill-rule:evenodd;stroke:#0d0d0d;stroke-width:0.3;stroke-linecap:round;stroke-linejoin:round;stroke-dasharray:none;stroke-opacity:1"
       id="path5313" />
    <path
       d="m 82.868358,117.69507 h -7.124045 c -0.789514,0 -0.98862,-0.72432 -0.871714,-1.04372 l 1.828281,-4.99808 c 0.204971,-0.56016 0.616618,-0.65015 0.906455,-0.65015 l 7.71443,-7e-5 -0.575616,1.57042 h -5.777787 c -0.310204,0 -0.758783,0.0124 -0.991089,0.60591 l -0.827999,2.25614 c -0.113603,0.30925 0.160376,0.68914 0.51157,0.68914 h 5.78327 z"
       style="fill:#d90008;fill-opacity:1;fill-rule:evenodd;stroke-width:0.872883;stroke-dasharray:none"
       id="path5331" />
  </g>
</svg>
