<?xml version="1.0" encoding="UTF-8" standalone="no"?>
<!-- Created with Inkscape (http://www.inkscape.org/) -->

<svg
   width="65.515091mm"
   height="9.2803984mm"
   viewBox="0 0 65.515091 9.2803983"
   version="1.1"
   id="svg5617"
   inkscape:version="1.2.2 (b0a8486541, 2022-12-01)"
   sodipodi:docname="logo-2026.svg"
   xmlns:inkscape="http://www.inkscape.org/namespaces/inkscape"
   xmlns:sodipodi="http://sodipodi.sourceforge.net/DTD/sodipodi-0.dtd"
   xmlns="http://www.w3.org/2000/svg"
   xmlns:svg="http://www.w3.org/2000/svg">
  <sodipodi:namedview
     id="namedview5619"
     pagecolor="#ffffff"
     bordercolor="#cccccc"
     borderopacity="1"
     inkscape:showpageshadow="0"
     inkscape:pageopacity="1"
     inkscape:pagecheckerboard="0"
     inkscape:deskcolor="#d1d1d1"
     inkscape:document-units="mm"
     showgrid="false"
     inkscape:zoom="3.3638608"
     inkscape:cx="83.832244"
     inkscape:cy="-5.9455492"
     inkscape:window-width="1920"
     inkscape:window-height="1008"
     inkscape:window-x="0"
     inkscape:window-y="0"
     inkscape:window-maximized="1"
     inkscape:current-layer="layer1" />
  <defs
     id="defs5614" />
  <g
     inkscape:label="Capa 1"
     inkscape:groupmode="layer"
     id="layer1"
     transform="translate(-60.423261,-130.31139)">
    <g
       id="g4764"
       style="fill:#ffffff;fill-opacity:0.25;stroke:#ffffff;stroke-width:0.4;stroke-dasharray:none;stroke-opacity:0.908163"
       transform="translate(-11.764836,-64.363883)">
      <path
         d="m 99.39032,197.24397 h 2.00296 c 0.18609,0 0.2838,0.1127 0.22582,0.2709 l -0.25765,0.70271 c -0.053,0.1447 -0.24893,0.28903 -0.46554,0.28915 l -2.315566,-6e-5 0.344585,-0.93194 c 0.08024,-0.21738 0.248564,-0.33076 0.465391,-0.33076 z"
         style="fill:#ffffff;fill-opacity:0.25;fill-rule:evenodd;stroke:#ffffff;stroke-width:0.4;stroke-linecap:round;stroke-linejoin:round;stroke-dasharray:none;stroke-opacity:0.908163"
         id="path4746" />
      <path
         d="m 92.882776,196.34759 h 3.098707 c 0.358567,0 0.566144,0.34729 0.468996,0.61111 l -0.24216,0.65848 c -0.07518,0.20436 -0.355624,0.43917 -0.659316,0.43917 l -3.824214,-6e-5 0.454172,-1.2411 c 0.120823,-0.33066 0.45805,-0.46763 0.703815,-0.46763 z m -3.734365,4.4181 h 1.583017 l 0.496682,-1.35467 h 3.599929 c 0.454614,0 0.573193,0.4095 0.50305,0.60087 l -0.137876,0.37601 c -0.06884,0.18789 0.106786,0.37779 0.284928,0.37779 h 0.970095 c 0.205919,0 0.360111,-0.12248 0.429372,-0.28355 0.07228,-0.16834 0.05184,-0.3791 -0.09976,-0.53647 -0.166868,-0.1738 -0.226984,-0.55921 -0.246743,-0.80669 -0.01379,-0.17292 0.09772,-0.26751 0.179891,-0.29567 0.675653,-0.23241 0.832717,-0.54799 0.979751,-0.94966 l 0.733635,-2.00113 c 0.133646,-0.36418 -0.199351,-0.89975 -0.702397,-0.89975 l -6.456959,6e-5 z"
         style="fill:#ffffff;fill-opacity:0.25;fill-rule:evenodd;stroke:#ffffff;stroke-width:0.4;stroke-linecap:round;stroke-linejoin:round;stroke-dasharray:none;stroke-opacity:0.908163"
         id="path4748" />
      <path
         d="m 131.93767,200.76575 h 1.59887 l 1.61989,-4.4181 1.78634,-6e-5 c 0.14547,0 0.19637,-0.10506 0.22431,-0.18176 l 0.32331,-0.88136 c 0.0424,-0.11545 -0.0542,-0.2917 -0.22804,-0.2917 l -5.11799,6e-5 -0.49688,1.35476 h 1.5971 c 0.18933,0 0.26672,0.16818 0.21744,0.30116 z"
         style="fill:#ffffff;fill-opacity:0.25;fill-rule:evenodd;stroke:#ffffff;stroke-width:0.4;stroke-linecap:round;stroke-linejoin:round;stroke-dasharray:none;stroke-opacity:0.908163"
         id="path4750" />
      <path
         d="m 120.54161,198.05614 h -2.53946 l 0.44735,-1.22046 c 0.0999,-0.27225 0.38958,-0.48829 0.66538,-0.48829 h 2.06285 c 0.17406,0 0.26621,0.1677 0.22861,0.26976 l -0.43072,1.17476 c -0.0579,0.15816 -0.26473,0.26423 -0.43406,0.26423 z m -5.11589,2.70961 h 1.58301 l 0.49648,-1.35468 2.55913,-5e-5 c 0.15931,0 0.25645,0.16738 0.2163,0.27683 l -0.39516,1.07784 1.58296,6e-5 1.77191,-4.83307 c 0.16007,-0.43646 -0.18383,-0.93985 -0.71519,-0.93985 h -3.39981 c -0.53036,0 -1.57847,-0.0124 -2.07959,1.35456 z"
         style="fill:#ffffff;fill-opacity:0.25;fill-rule:evenodd;stroke:#ffffff;stroke-width:0.4;stroke-linecap:round;stroke-linejoin:round;stroke-dasharray:none;stroke-opacity:0.908163"
         id="path4752" />
      <path
         d="m 84.225592,196.34693 h 3.152699 c 0.386288,0 0.554866,0.37663 0.470027,0.60779 l -0.727473,1.98439 c -0.08245,0.22543 -0.356876,0.47154 -0.654059,0.47154 l -3.198265,-4e-5 c -0.302072,0 -0.524311,-0.35235 -0.423004,-0.62887 l 0.728263,-1.98632 c 0.0899,-0.24529 0.418407,-0.44849 0.651755,-0.44849 z m -1.076126,-1.35469 h 5.942504 c 0.582001,0 0.850542,0.56859 0.719031,0.92714 l -1.531399,4.17938 c -0.121797,0.33233 -0.567174,0.6663 -0.992832,0.6663 l -5.702072,7.1e-4 c -0.511749,0 -0.868844,-0.49328 -0.701868,-0.94846 l 1.596797,-4.35437 c 0.09536,-0.25964 0.38936,-0.47067 0.669804,-0.47067 z"
         style="fill:#ffffff;fill-opacity:0.25;fill-rule:evenodd;stroke:#ffffff;stroke-width:0.4;stroke-linecap:round;stroke-linejoin:round;stroke-dasharray:none;stroke-opacity:0.908163"
         id="path4754" />
      <path
         d="m 113.579,194.99323 -1.50204,4.09678 c -0.076,0.20771 0.0933,0.32132 0.19711,0.32132 l 2.5356,-6e-5 -0.49672,1.35473 -4.4335,6e-5 2.11668,-5.77283 z"
         style="fill:#ffffff;fill-opacity:0.25;fill-rule:evenodd;stroke:#ffffff;stroke-width:0.4;stroke-linecap:round;stroke-linejoin:round;stroke-dasharray:none;stroke-opacity:0.908163"
         id="path4756" />
      <path
         d="m 79.423193,200.76575 h -6.14552 c -0.681061,0 -0.852782,-0.62479 -0.75192,-0.9004 l 1.57713,-4.31166 c 0.171026,-0.46732 0.531928,-0.56086 0.782019,-0.56086 h 6.654747 l -0.496517,1.35476 h -4.984188 c -0.307075,0 -0.667356,-7e-4 -0.870259,0.56214 l -0.69894,1.90678 c -0.09783,0.26683 0.138335,0.59451 0.441293,0.59451 h 4.988873 z"
         style="fill:#ffffff;fill-opacity:0.25;fill-rule:evenodd;stroke:#ffffff;stroke-width:0.4;stroke-linecap:round;stroke-linejoin:round;stroke-dasharray:none;stroke-opacity:0.908163"
         id="path4758" />
      <path
         d="m 103.65783,194.99283 h 6.1457 c 0.68081,0 0.85242,0.62495 0.75178,0.90037 l -1.08065,2.95701 c -0.17642,0.48307 -0.53193,0.56086 -0.78182,0.56086 l -5.07189,-5e-5 -0.49652,1.35467 -1.58296,6e-5 0.99314,-2.7094 4.98424,-6e-5 c 0.26751,0 0.65452,-0.0108 0.85498,-0.52255 l 0.21754,-0.59173 c 0.0983,-0.26668 -0.13839,-0.59442 -0.4412,-0.59442 h -4.98893 z"
         style="fill:#ffffff;fill-opacity:0.25;fill-rule:evenodd;stroke:#ffffff;stroke-width:0.4;stroke-linecap:round;stroke-linejoin:round;stroke-dasharray:none;stroke-opacity:0.908163"
         id="path4760" />
      <path
         d="m 130.712,194.99272 h -5.41339 c -0.73582,0 -1.07655,0.90659 -0.70413,1.30274 l 1.72748,2.39851 c 0.17515,0.24327 0.0136,0.7169 -0.4217,0.7169 h -2.66118 c -0.0896,0 -0.18652,0.0741 -0.21713,0.15752 l -0.4389,1.1973 5.75446,-0.001 c 0.69041,-5e-5 1.06857,-0.80094 0.64906,-1.34691 l -1.72641,-2.42776 c -0.0832,-0.11685 -0.0454,-0.64206 0.47884,-0.64217 l 2.79585,-3.6e-4 0.39032,-1.06487 c 0.0414,-0.11241 -0.0477,-0.28985 -0.21317,-0.28985 z"
         style="fill:#ffffff;fill-opacity:0.25;fill-rule:evenodd;stroke:#ffffff;stroke-width:0.4;stroke-linecap:round;stroke-linejoin:round;stroke-dasharray:none;stroke-opacity:0.908163"
         id="path4762" />
    </g>
    <g
       id="g3459"
       style="fill:#000000;fill-opacity:1;stroke:#000000;stroke-width:0.4;stroke-dasharray:none;stroke-opacity:1"
       transform="translate(-11.872214,-64.480845)">
      <path
         d="m 99.39032,197.24397 h 2.00296 c 0.18609,0 0.2838,0.1127 0.22582,0.2709 l -0.25765,0.70271 c -0.053,0.1447 -0.24893,0.28903 -0.46554,0.28915 l -2.315566,-6e-5 0.344585,-0.93194 c 0.08024,-0.21738 0.248564,-0.33076 0.465391,-0.33076 z"
         style="fill:#000000;fill-opacity:1;fill-rule:evenodd;stroke:#000000;stroke-width:0.4;stroke-linecap:round;stroke-linejoin:round;stroke-dasharray:none;stroke-opacity:1"
         id="path3441" />
      <path
         d="m 92.882776,196.34759 h 3.098707 c 0.358567,0 0.566144,0.34729 0.468996,0.61111 l -0.24216,0.65848 c -0.07518,0.20436 -0.355624,0.43917 -0.659316,0.43917 l -3.824214,-6e-5 0.454172,-1.2411 c 0.120823,-0.33066 0.45805,-0.46763 0.703815,-0.46763 z m -3.734365,4.4181 h 1.583017 l 0.496682,-1.35467 h 3.599929 c 0.454614,0 0.573193,0.4095 0.50305,0.60087 l -0.137876,0.37601 c -0.06884,0.18789 0.106786,0.37779 0.284928,0.37779 h 0.970095 c 0.205919,0 0.360111,-0.12248 0.429372,-0.28355 0.07228,-0.16834 0.05184,-0.3791 -0.09976,-0.53647 -0.166868,-0.1738 -0.226984,-0.55921 -0.246743,-0.80669 -0.01379,-0.17292 0.09772,-0.26751 0.179891,-0.29567 0.675653,-0.23241 0.832717,-0.54799 0.979751,-0.94966 l 0.733635,-2.00113 c 0.133646,-0.36418 -0.199351,-0.89975 -0.702397,-0.89975 l -6.456959,6e-5 z"
         style="fill:#000000;fill-opacity:1;fill-rule:evenodd;stroke:#000000;stroke-width:0.4;stroke-linecap:round;stroke-linejoin:round;stroke-dasharray:none;stroke-opacity:1"
         id="path3443" />
      <path
         d="m 131.93767,200.76575 h 1.59887 l 1.61989,-4.4181 1.78634,-6e-5 c 0.14547,0 0.19637,-0.10506 0.22431,-0.18176 l 0.32331,-0.88136 c 0.0424,-0.11545 -0.0542,-0.2917 -0.22804,-0.2917 l -5.11799,6e-5 -0.49688,1.35476 h 1.5971 c 0.18933,0 0.26672,0.16818 0.21744,0.30116 z"
         style="fill:#000000;fill-opacity:1;fill-rule:evenodd;stroke:#000000;stroke-width:0.4;stroke-linecap:round;stroke-linejoin:round;stroke-dasharray:none;stroke-opacity:1"
         id="path3445" />
      <path
         d="m 120.54161,198.05614 h -2.53946 l 0.44735,-1.22046 c 0.0999,-0.27225 0.38958,-0.48829 0.66538,-0.48829 h 2.06285 c 0.17406,0 0.26621,0.1677 0.22861,0.26976 l -0.43072,1.17476 c -0.0579,0.15816 -0.26473,0.26423 -0.43406,0.26423 z m -5.11589,2.70961 h 1.58301 l 0.49648,-1.35468 2.55913,-5e-5 c 0.15931,0 0.25645,0.16738 0.2163,0.27683 l -0.39516,1.07784 1.58296,6e-5 1.77191,-4.83307 c 0.16007,-0.43646 -0.18383,-0.93985 -0.71519,-0.93985 h -3.39981 c -0.53036,0 -1.57847,-0.0124 -2.07959,1.35456 z"
         style="fill:#000000;fill-opacity:1;fill-rule:evenodd;stroke:#000000;stroke-width:0.4;stroke-linecap:round;stroke-linejoin:round;stroke-dasharray:none;stroke-opacity:1"
         id="path3447" />
      <path
         d="m 84.225592,196.34693 h 3.152699 c 0.386288,0 0.554866,0.37663 0.470027,0.60779 l -0.727473,1.98439 c -0.08245,0.22543 -0.356876,0.47154 -0.654059,0.47154 l -3.198265,-4e-5 c -0.302072,0 -0.524311,-0.35235 -0.423004,-0.62887 l 0.728263,-1.98632 c 0.0899,-0.24529 0.418407,-0.44849 0.651755,-0.44849 z m -1.076126,-1.35469 h 5.942504 c 0.582001,0 0.850542,0.56859 0.719031,0.92714 l -1.531399,4.17938 c -0.121797,0.33233 -0.567174,0.6663 -0.992832,0.6663 l -5.702072,7.1e-4 c -0.511749,0 -0.868844,-0.49328 -0.701868,-0.94846 l 1.596797,-4.35437 c 0.09536,-0.25964 0.38936,-0.47067 0.669804,-0.47067 z"
         style="fill:#000000;fill-opacity:1;fill-rule:evenodd;stroke:#000000;stroke-width:0.4;stroke-linecap:round;stroke-linejoin:round;stroke-dasharray:none;stroke-opacity:1"
         id="path3449" />
      <path
         d="m 113.579,194.99323 -1.50204,4.09678 c -0.076,0.20771 0.0933,0.32132 0.19711,0.32132 l 2.5356,-6e-5 -0.49672,1.35473 -4.4335,6e-5 2.11668,-5.77283 z"
         style="fill:#000000;fill-opacity:1;fill-rule:evenodd;stroke:#000000;stroke-width:0.4;stroke-linecap:round;stroke-linejoin:round;stroke-dasharray:none;stroke-opacity:1"
         id="path3451" />
      <path
         d="m 79.423193,200.76575 h -6.14552 c -0.681061,0 -0.852782,-0.62479 -0.75192,-0.9004 l 1.57713,-4.31166 c 0.171026,-0.46732 0.531928,-0.56086 0.782019,-0.56086 h 6.654747 l -0.496517,1.35476 h -4.984188 c -0.307075,0 -0.667356,-7e-4 -0.870259,0.56214 l -0.69894,1.90678 c -0.09783,0.26683 0.138335,0.59451 0.441293,0.59451 h 4.988873 z"
         style="fill:#000000;fill-opacity:1;fill-rule:evenodd;stroke:#000000;stroke-width:0.4;stroke-linecap:round;stroke-linejoin:round;stroke-dasharray:none;stroke-opacity:1"
         id="path3453" />
      <path
         d="m 103.65783,194.99283 h 6.1457 c 0.68081,0 0.85242,0.62495 0.75178,0.90037 l -1.08065,2.95701 c -0.17642,0.48307 -0.53193,0.56086 -0.78182,0.56086 l -5.07189,-5e-5 -0.49652,1.35467 -1.58296,6e-5 0.99314,-2.7094 4.98424,-6e-5 c 0.26751,0 0.65452,-0.0108 0.85498,-0.52255 l 0.21754,-0.59173 c 0.0983,-0.26668 -0.13839,-0.59442 -0.4412,-0.59442 h -4.98893 z"
         style="fill:#000000;fill-opacity:1;fill-rule:evenodd;stroke:#000000;stroke-width:0.4;stroke-linecap:round;stroke-linejoin:round;stroke-dasharray:none;stroke-opacity:1"
         id="path3455" />
      <path
         d="m 130.712,194.99272 h -5.41339 c -0.73582,0 -1.07655,0.90659 -0.70413,1.30274 l 1.72748,2.39851 c 0.17515,0.24327 0.0136,0.7169 -0.4217,0.7169 h -2.66118 c -0.0896,0 -0.18652,0.0741 -0.21713,0.15752 l -0.4389,1.1973 5.75446,-0.001 c 0.69041,-5e-5 1.06857,-0.80094 0.64906,-1.34691 l -1.72641,-2.42776 c -0.0832,-0.11685 -0.0454,-0.64206 0.47884,-0.64217 l 2.79585,-3.6e-4 0.39032,-1.06487 c 0.0414,-0.11241 -0.0477,-0.28985 -0.21317,-0.28985 z"
         style="fill:#000000;fill-opacity:1;fill-rule:evenodd;stroke:#000000;stroke-width:0.4;stroke-linecap:round;stroke-linejoin:round;stroke-dasharray:none;stroke-opacity:1"
         id="path3457" />
    </g>
    <g
       id="g4784"
       transform="translate(-11.872214,-64.480845)">
      <path
         d="m 131.93824,200.76569 h 1.59898 l 1.61988,-4.41819 h 1.78633 c 0.14549,0 0.19634,-0.10507 0.22428,-0.18173 l 0.32325,-0.88135 c 0.0424,-0.11551 -0.0541,-0.29165 -0.22793,-0.29165 h -5.11808 l -0.4969,1.35473 h 1.5972 c 0.18934,0 0.26662,0.16821 0.2174,0.30119 z"
         style="fill:#d90008;fill-opacity:1;fill-rule:evenodd;stroke-width:0.752999;stroke-dasharray:none"
         id="path4766" />
      <path
         d="m 120.54215,198.05603 h -2.53943 l 0.44737,-1.22046 c 0.0999,-0.27229 0.3895,-0.48829 0.66546,-0.48829 l 2.06281,5e-5 c 0.17406,0 0.26615,0.16781 0.2286,0.26976 l -0.43077,1.17478 c -0.058,0.15815 -0.26468,0.26422 -0.43404,0.26422 z m -5.11595,2.70966 h 1.58307 l 0.49657,-1.35473 h 2.55907 c 0.15925,0 0.2564,0.1674 0.21624,0.27686 l -0.39521,1.07783 1.58307,4e-5 1.7719,-4.83301 c 0.16003,-0.43651 -0.1838,-0.93985 -0.71513,-0.93985 l -3.39989,-6e-5 c -0.53033,0 -1.57855,-0.0124 -2.07961,1.35451 z"
         style="fill:#d90008;fill-opacity:1;fill-rule:evenodd;stroke-width:0.752999;stroke-dasharray:none"
         id="path4768" />
      <path
         d="m 92.883143,196.3475 h 3.098764 c 0.358548,0 0.566034,0.34733 0.468939,0.61123 l -0.242269,0.65845 c -0.07518,0.20425 -0.355625,0.43905 -0.659263,0.43905 l -3.824155,-5e-5 0.454113,-1.24104 c 0.120822,-0.33061 0.458106,-0.46769 0.703818,-0.46769 z m -3.734475,4.41819 h 1.583018 l 0.496682,-1.35473 h 3.600042 c 0.454645,0 0.573171,0.40956 0.502989,0.60099 l -0.137875,0.37591 c -0.06883,0.18788 0.106842,0.37783 0.284931,0.37783 h 0.970148 c 0.205866,0 0.360167,-0.12243 0.429319,-0.28351 0.07227,-0.16842 0.05178,-0.37914 -0.09971,-0.53651 -0.166923,-0.17375 -0.22704,-0.55921 -0.246852,-0.80669 -0.01298,-0.17297 0.09778,-0.26745 0.179948,-0.29571 0.675653,-0.23241 0.83266,-0.54806 0.979807,-0.94962 l 0.733636,-2.00117 c 0.133642,-0.36428 -0.199411,-0.89976 -0.702457,-0.89976 l -6.457069,5e-5 z"
         style="fill:#d90008;fill-opacity:1;fill-rule:evenodd;stroke-width:0.752999;stroke-dasharray:none"
         id="path4770" />
      <path
         d="m 84.225797,196.34688 h 3.152805 c 0.386291,0 0.554869,0.37668 0.470082,0.60779 l -0.727419,1.98444 c -0.0825,0.22543 -0.35693,0.47154 -0.654056,0.47154 h -3.19843 c -0.302016,0 -0.524312,-0.35233 -0.423005,-0.62891 l 0.728263,-1.98636 c 0.09001,-0.24534 0.418464,-0.4485 0.65176,-0.4485 z m -1.003796,-1.35479 h 5.87034 c 0.581944,0 0.850538,0.56865 0.71903,0.9272 l -1.558884,4.25191 c -0.109749,0.29957 -0.336951,0.5921 -0.888691,0.59221 l -5.778731,0.002 c -0.511858,1.6e-4 -0.902672,-0.39926 -0.73577,-0.85444 l 1.596853,-4.35438 c 0.127279,-0.34686 0.495374,-0.56478 0.775853,-0.56478 z"
         style="fill:#d90008;fill-opacity:1;fill-rule:evenodd;stroke-width:0.752999;stroke-dasharray:none"
         id="path4772" />
      <path
         d="m 113.57832,194.99277 -1.50199,4.09682 c -0.076,0.20765 0.0934,0.32137 0.19711,0.32137 h 2.53556 l -0.49673,1.35473 h -4.43344 l 2.11664,-5.77286 z"
         style="fill:#d90008;fill-opacity:1;fill-rule:evenodd;stroke-width:0.752999;stroke-dasharray:none"
         id="path4774" />
      <path
         d="m 79.423507,200.76569 h -6.145611 c -0.681079,0 -0.852839,-0.62484 -0.751994,-0.90037 l 1.577185,-4.31163 c 0.176819,-0.48323 0.531928,-0.56086 0.781959,-0.56086 l 6.654913,-6e-5 -0.496569,1.35473 h -4.984241 c -0.267603,0 -0.654571,0.0107 -0.854973,0.5227 l -0.714286,1.94627 c -0.09797,0.26678 0.138356,0.59449 0.441314,0.59449 h 4.988985 z"
         style="fill:#d90008;fill-opacity:1;fill-rule:evenodd;stroke-width:0.752999;stroke-dasharray:none"
         id="path4776" />
      <path
         d="m 103.65824,194.99277 h 6.14577 c 0.68081,0 0.85242,0.62496 0.75178,0.9004 l -1.08066,2.95693 c -0.17652,0.48307 -0.53194,0.56086 -0.78181,0.56086 h -5.07195 l -0.49652,1.35473 h -1.58307 l 0.99331,-2.70946 4.98424,-5e-5 c 0.26744,0 0.65457,-0.0107 0.85496,-0.52255 l 0.21756,-0.59168 c 0.0982,-0.26667 -0.13835,-0.5945 -0.4412,-0.5945 l -4.98893,5e-5 z"
         style="fill:#d90008;fill-opacity:1;fill-rule:evenodd;stroke-width:0.752999;stroke-dasharray:none"
         id="path4778" />
      <path
         d="m 130.71184,194.99277 h -5.41345 c -0.73571,0 -1.07642,0.90659 -0.70405,1.30274 l 1.7274,2.39852 c 0.17522,0.24321 0.0136,0.7169 -0.42164,0.7169 l -2.66112,3e-5 c -0.0896,0 -0.18658,0.074 -0.21708,0.15749 l -0.43891,1.19724 5.75438,-7.1e-4 c 0.69044,-1.6e-4 1.0686,-0.801 0.64903,-1.34696 l -1.72641,-2.42768 c -0.0831,-0.1169 -0.0453,-0.64206 0.47886,-0.6422 l 2.79586,-7.1e-4 0.39041,-1.06487 c 0.0413,-0.11236 -0.0478,-0.28986 -0.21322,-0.28986 z m 0,0 z"
         style="fill:#d90009;fill-opacity:1;fill-rule:evenodd;stroke-width:0.752999;stroke-dasharray:none"
         id="path4780" />
      <path
         d="m 99.390433,197.2435 h 2.002937 c 0.18611,0 0.28382,0.11269 0.2259,0.27085 l -0.25766,0.70275 c -0.0529,0.14471 -0.24894,0.28905 -0.46555,0.28905 h -2.315551 l 0.344568,-0.93188 c 0.0802,-0.21746 0.248638,-0.33077 0.465356,-0.33077 z"
         style="fill:#d90008;fill-opacity:1;fill-rule:evenodd;stroke-width:0.752999;stroke-dasharray:none"
         id="path4782" />
    </g>
    <g
       aria-label="PUBLICIDAD"
       id="text2466"
       style="font-size:3.45702px;font-family:FreeMono;-inkscape-font-specification:'FreeMono, Normal';letter-spacing:1.32292px;text-anchor:middle;fill:#f2f2f2;stroke:#f2f2f2;stroke-width:0.1;stroke-linecap:round;stroke-linejoin:round;paint-order:fill markers stroke;stop-color:#000000">
      <path
         d="m 77.438028,138.54617 h 0.46324 q 0.224707,0 0.387187,-0.12791 0.162479,-0.12791 0.162479,-0.30767 0,-0.17631 -0.148651,-0.30076 -0.145195,-0.12791 -0.349159,-0.12791 h -0.515096 z m 0,0.14174 v 0.65683 h 0.477068 q 0.0968,0 0.0968,0.0691 0,0.0726 -0.0968,0.0726 h -0.805485 q -0.09334,0 -0.09334,-0.0726 0,-0.0691 0.09334,-0.0691 h 0.186679 v -1.66282 h -0.186679 q -0.09334,0 -0.09334,-0.0726 0,-0.0691 0.09334,-0.0691 h 0.829685 q 0.276561,0 0.46324,0.16594 0.190136,0.16248 0.190136,0.40447 0,0.24199 -0.203964,0.41138 -0.203964,0.16594 -0.497811,0.16594 z"
         id="path1006" />
      <path
         d="m 81.989806,137.68192 v 1.16501 q 0,0.29385 -0.200508,0.49436 -0.19705,0.2005 -0.487439,0.2005 -0.293847,0 -0.490897,-0.19705 -0.19705,-0.2005 -0.19705,-0.49781 v -1.16501 h -0.117539 q -0.09334,0 -0.09334,-0.0726 0,-0.0691 0.09334,-0.0691 h 0.515096 q 0.09334,0 0.09334,0.0691 0,0.0726 -0.09334,0.0726 h -0.25582 v 1.16501 q 0,0.23508 0.155566,0.3941 0.159023,0.15903 0.390644,0.15903 0.228163,0 0.387186,-0.15903 0.159023,-0.16248 0.159023,-0.3941 v -1.16501 h -0.25582 q -0.09334,0 -0.09334,-0.0726 0,-0.0691 0.09334,-0.0691 h 0.515096 q 0.09334,0 0.09334,0.0691 0,0.0726 -0.09334,0.0726 z"
         id="path1008" />
      <path
         d="m 85.390396,138.95756 q 0,-0.0726 -0.03111,-0.13828 -0.02766,-0.0657 -0.09334,-0.12791 -0.06568,-0.0657 -0.200507,-0.10371 -0.131367,-0.0415 -0.318046,-0.0415 h -0.515096 v 0.79857 h 0.71906 q 0.183223,0 0.311132,-0.11062 0.12791,-0.11408 0.12791,-0.27656 z m -1.158102,-0.55313 h 0.508182 q 0.22125,0 0.362987,-0.10371 0.141738,-0.10371 0.141738,-0.26273 0,-0.15211 -0.12791,-0.25236 -0.127909,-0.10371 -0.318045,-0.10371 h -0.566952 z m -0.141738,0.94031 v -1.66282 h -0.186679 q -0.09334,0 -0.09334,-0.0726 0,-0.0691 0.09334,-0.0691 h 0.891912 q 0.252362,0 0.421756,0.14519 0.169394,0.14174 0.169394,0.35608 0,0.25582 -0.293847,0.41484 0.439042,0.15556 0.439042,0.50127 0,0.21779 -0.169394,0.37335 -0.165937,0.15557 -0.401014,0.15557 h -1.057849 q -0.09334,0 -0.09334,-0.0726 0,-0.0691 0.09334,-0.0691 z"
         id="path1010" />
      <path
         d="m 87.843762,137.68192 v 1.66282 h 0.943767 v -0.55312 q 0,-0.0933 0.0726,-0.0933 0.06914,0 0.06914,0.0933 v 0.69486 h -1.559116 q -0.09334,0 -0.09334,-0.0726 0,-0.0691 0.09334,-0.0691 h 0.331874 v -1.66282 h -0.331874 q -0.09334,0 -0.09334,-0.0726 0,-0.0691 0.09334,-0.0691 h 0.805485 q 0.09334,0 0.09334,0.0691 0,0.0726 -0.09334,0.0726 z"
         id="path1012" />
      <path
         d="m 91.562399,137.67846 v 1.66974 h 0.480526 q 0.0968,0 0.0968,0.0657 0,0.0726 -0.0968,0.0726 h -1.102789 q -0.09334,0 -0.09334,-0.0726 0,-0.0657 0.09334,-0.0657 h 0.483982 v -1.66974 h -0.483982 q -0.09334,0 -0.09334,-0.0691 0,-0.0691 0.09334,-0.0691 h 1.102789 q 0.0968,0 0.0968,0.0691 0,0.0691 -0.0968,0.0691 z"
         id="path1014" />
      <path
         d="m 94.071078,138.36295 q 0,-0.0657 0.01729,-0.15902 0.02074,-0.0968 0.07951,-0.22471 0.05877,-0.12791 0.145195,-0.23162 0.08643,-0.10371 0.241992,-0.17631 0.155566,-0.0761 0.352616,-0.0761 0.349159,0 0.598064,0.23853 v -0.10025 q 0,-0.0933 0.0726,-0.0933 0.06914,0 0.06914,0.0933 v 0.38718 q 0,0.0933 -0.0726,0.0933 -0.06223,0 -0.06914,-0.083 -0.01037,-0.15903 -0.190136,-0.27657 -0.176308,-0.11754 -0.407928,-0.11754 -0.286933,0 -0.490897,0.22125 -0.203964,0.2178 -0.203964,0.52547 v 0.24545 q 0,0.31113 0.224706,0.54275 0.224706,0.22817 0.528924,0.22817 0.179765,0 0.321503,-0.0726 0.141738,-0.0726 0.280019,-0.23854 0.03111,-0.0346 0.06223,-0.0346 0.06914,0 0.06914,0.0657 0,0.0311 -0.05531,0.0968 -0.05531,0.0657 -0.145195,0.14174 -0.08988,0.0726 -0.235077,0.12791 -0.145195,0.0553 -0.297304,0.0553 -0.352616,0 -0.625721,-0.26964 -0.269647,-0.27311 -0.269647,-0.62227 z"
         id="path1016" />
      <path
         d="m 98.356665,137.67846 v 1.66974 h 0.480526 q 0.0968,0 0.0968,0.0657 0,0.0726 -0.0968,0.0726 h -1.10279 q -0.09334,0 -0.09334,-0.0726 0,-0.0657 0.09334,-0.0657 h 0.483983 v -1.66974 h -0.483983 q -0.09334,0 -0.09334,-0.0691 0,-0.0691 0.09334,-0.0691 h 1.10279 q 0.0968,0 0.0968,0.0691 0,0.0691 -0.0968,0.0691 z"
         id="path1018" />
      <path
         d="m 102.30346,138.38715 q 0,-0.0691 -0.0311,-0.17285 -0.0311,-0.10371 -0.10025,-0.22817 -0.0657,-0.12791 -0.20742,-0.21433 -0.13828,-0.0899 -0.32151,-0.0899 h -0.49435 v 1.66282 h 0.51855 q 0.24891,0 0.4425,-0.21433 0.19359,-0.21434 0.19359,-0.4909 z m -1.29638,0.95759 v -1.66282 h -0.11754 q -0.0933,0 -0.0933,-0.0726 0,-0.0691 0.0933,-0.0691 h 0.76055 q 0.33533,0 0.56349,0.25582 0.23162,0.25236 0.23162,0.6188 v 0.1936 q 0,0.3699 -0.23162,0.62572 -0.22816,0.25236 -0.56349,0.25236 h -0.76055 q -0.0933,0 -0.0933,-0.0726 0,-0.0691 0.0933,-0.0691 z"
         id="path1020" />
      <path
         d="m 105.47244,138.69482 -0.38719,-1.0129 h -0.0519 l -0.37335,1.0129 z m 0.0518,0.14174 h -0.91957 l -0.18668,0.50818 h 0.27311 q 0.0933,0 0.0933,0.0691 0,0.0726 -0.0933,0.0726 h -0.52201 q -0.0933,0 -0.0933,-0.0726 0,-0.0691 0.0933,-0.0691 h 0.10717 l 0.6188,-1.66282 h -0.41484 q -0.0933,0 -0.0933,-0.0726 0,-0.0691 0.0933,-0.0691 h 0.70523 l 0.68104,1.80456 h 0.12791 q 0.0933,0 0.0933,0.0691 0,0.0726 -0.0933,0.0726 h -0.5393 q -0.0933,0 -0.0933,-0.0726 0,-0.0691 0.0933,-0.0691 h 0.26273 z"
         id="path1022" />
      <path
         d="m 109.09773,138.38715 q 0,-0.0691 -0.0311,-0.17285 -0.0311,-0.10371 -0.10026,-0.22817 -0.0657,-0.12791 -0.20742,-0.21433 -0.13828,-0.0899 -0.3215,-0.0899 h -0.49435 v 1.66282 h 0.51855 q 0.24891,0 0.4425,-0.21433 0.19359,-0.21434 0.19359,-0.4909 z m -1.29638,0.95759 v -1.66282 h -0.11754 q -0.0933,0 -0.0933,-0.0726 0,-0.0691 0.0933,-0.0691 h 0.76054 q 0.33534,0 0.5635,0.25582 0.23162,0.25236 0.23162,0.6188 v 0.1936 q 0,0.3699 -0.23162,0.62572 -0.22816,0.25236 -0.5635,0.25236 h -0.76054 q -0.0933,0 -0.0933,-0.0726 0,-0.0691 0.0933,-0.0691 z"
         id="path1024" />
    </g>
  </g>
</svg>
